<?xml version="1.0" encoding="UTF-8"?>
<svg id="Calque_1" data-name="Calque 1" xmlns="http://www.w3.org/2000/svg" viewBox="0 0 1030.6 1080">
  <defs>
    <style>
      .cls-1 {
        fill: #ce1616;
      }
    </style>
  </defs>
  <g>
    <path class="cls-1" d="M528.68,215.82c-1.32-1.82-3.33-2.95-6.03-3.39-2.7-.44-5.53.33-8.51,2.31-10.56,6.83-20.47,14.37-29.72,22.63-9.25,8.26-18.23,16.85-26.92,25.77-9.03,9.02-17.23,18.55-24.61,28.57-3.08,3.96-6.03,8.17-8.84,12.63-2.8,4.46-4.65,9.22-5.53,14.29-.4,2.04-.61,3.91-.64,5.6-.09,3.52.6,6.31,2.05,8.35,2.14,3.03,5.22,4.98,9.24,5.86,4.02.88,8.7.91,14.04.09,5.34-.83,10.65-2.04,15.94-3.64,4.18-1.26,8.14-2.59,11.87-4,.99-.36,1.96-.74,2.91-1.12,4.57-1.81,8.12-3.27,10.65-4.37,6.06-2.54,12.03-5.29,17.92-8.26,5.89-2.97,11.48-6.5,16.77-10.57.76-.66,1.53-1.38,2.31-2.15.77-.77,1.37-1.59,1.81-2.47.44-.88.69-1.85.75-2.89.05-1.05-.25-2.07-.91-3.06-.55-.88-1.3-1.57-2.23-2.06-.94-.5-1.93-.75-2.97-.75s-2.04.22-2.98.66c-.93.44-1.73,1.11-2.39,1.99-4.52,3.63-9.39,6.85-14.62,9.66-5.23,2.8-10.48,5.42-15.77,7.84-5.84,2.75-11.78,5.18-17.84,7.27-4.61,1.59-9.35,2.86-14.21,3.81h0c-1.52.31-3.05.57-4.6.81-6.17.66-10.38.55-12.64-.33-.89-.34-1.5-.92-1.83-1.73-.52-1.25-.37-3.04.43-5.37,1.43-4.29,3.49-8.45,6.19-12.47,2.7-4.02,5.7-7.87,9-11.56,3.31-3.69,6.75-7.21,10.32-10.57,3.58-3.36,6.97-6.58,10.16-9.66,5.62-5.29,11.42-10.4,17.43-15.36,5.99-4.95,12.24-9.74,18.74-14.37,3.52-2.53,7.1-4.92,10.73-7.18,3.64-2.26,7.22-4.65,10.74-7.19,3.08-2.2,4.82-4.56,5.2-7.1.39-2.53-.08-4.7-1.4-6.52Z"/>
    <path class="cls-1" d="M616.46,275.93c-.17-.93-.64-1.59-1.41-1.98-.77-.38-1.68-.44-2.72-.16-1.05.27-1.96,1.02-2.73,2.23-2.31,3.19-4.95,6.69-7.92,10.48-2.98,3.8-6.06,7.19-9.25,10.16-3.2,3.2-5.76,5.2-7.68,6.03-1.93.82-3.17,1.07-3.72.74-.44-.22-.77-1.01-.99-2.39-.22-1.38-.11-3.31.33-5.78.44-2.48,1.35-5.56,2.73-9.25,1.37-3.69,3.49-8.01,6.35-12.97.22-.55.55-1.15,1-1.81.88-1.54,1.09-3.11.66-4.71-.45-1.59-1.44-2.83-2.98-3.72-1.54-.88-3.11-1.09-4.7-.66-1.6.45-2.84,1.44-3.72,2.98-.22.33-.41.63-.58.91-.16.27-.36.63-.58,1.07-3.52,6.17-7.13,11.64-10.81,16.43-3.69,4.79-7.16,8.78-10.41,11.98-3.25,3.19-6.17,5.5-8.75,6.93-2.59,1.43-4.54,1.76-5.86.99-.45-.22-.94-.66-1.49-1.32-.55-.66-.77-1.92-.66-3.8.11-2.86,1.18-6.36,3.22-10.48,2.04-4.13,4.68-8.29,7.93-12.47,3.24-4.19,6.88-8.1,10.9-11.73,4.01-3.63,8.06-6.44,12.14-8.42,6.6-3.31,11.99-3.36,16.18-.17,1.43,1.1,2.75,1.52,3.96,1.24,1.21-.27,2.09-.85,2.65-1.73.55-.88.71-1.98.49-3.31-.22-1.32-1.05-2.53-2.48-3.63-3.85-2.97-8.28-4.57-13.29-4.79-5.01-.22-10.27.99-15.77,3.63-4.85,2.32-9.56,5.51-14.12,9.58-4.57,4.08-8.62,8.51-12.14,13.3-3.53,4.79-6.39,9.72-8.59,14.78-2.2,5.07-3.36,9.74-3.47,14.04-.11,3.63.58,6.85,2.07,9.66,1.48,2.81,3.66,4.98,6.52,6.52,2.09,1.21,4.51,1.82,7.27,1.82s5.22-.69,7.76-2.07c2.53-1.37,4.95-3.11,7.27-5.2,2.31-2.09,4.4-4.37,6.27-6.85,1.87-2.48,3.47-4.87,4.79-7.19-.55,2.54-.74,4.88-.58,7.02.17,2.15.52,4.05,1.08,5.7.55,1.65,1.18,3.06,1.9,4.21.71,1.16,1.4,1.9,2.06,2.23,2.53,1.43,4.9,2.15,7.1,2.15,2.64,0,5.2-.74,7.68-2.23,2.48-1.49,4.82-3.41,7.02-5.78,2.2-2.37,4.29-5.01,6.28-7.93,1.98-2.91,3.79-5.75,5.45-8.5,1.65-2.75,3.08-5.26,4.29-7.52,1.21-2.25,2.26-3.93,3.14-5.03.77-1.22,1.07-2.29.91-3.23Z"/>
  </g>
  <g>
    <path class="cls-1" d="M831.71,750.19l-30.16-189.71c-.67-4.21-4.3-7.3-8.56-7.3h-85.72c-4.26,0-7.89,3.09-8.56,7.3l-30.15,189.71c-.65,4.06,2.49,7.74,6.61,7.74h53.46c3.03,0,5.61-2.23,6.04-5.24l6.53-45.43c.42-2.94,2.94-5.12,5.91-5.12h6.05c2.97,0,5.49,2.18,5.91,5.12l6.53,45.43c.43,3.01,3,5.24,6.04,5.24h53.46c4.11,0,7.25-3.68,6.61-7.74ZM750.13,678.57c-12.71,0-23.02-10.3-23.02-23.02s10.31-23.01,23.02-23.01,23.02,10.3,23.02,23.01-10.3,23.02-23.02,23.02Z"/>
    <path class="cls-1" d="M326.36,426.47c-1.53-.76-1.62-2.9-.15-3.71,11.36-6.1,21.55-19,21.71-41.23.1-13.38-5.45-53.51-50.82-53.51h-94.31c-2.21,0-3.99,1.79-3.99,4v196.76c0,2.21,1.78,4,3.99,4h94.08c30.84,0,53.86-16.6,53.86-57.92,0-22.25-4.47-38.49-24.37-48.39ZM277.61,474.48c0,2.41-1.93,4.33-4.33,4.33s-4.36-1.92-4.36-4.33v-25.33c0-2.4,1.95-4.33,4.36-4.33s4.33,1.93,4.33,4.33v25.33ZM277.61,398.07c0,2.41-1.93,4.36-4.33,4.36s-4.36-1.95-4.36-4.36v-14.16c0-2.4,1.95-4.36,4.36-4.36s4.33,1.96,4.33,4.36v14.16Z"/>
    <path class="cls-1" d="M343.62,553.17h-50.88c-2.86,0-5.18,2.32-5.18,5.18v53.74c0,2.37-3.43,2.71-3.89.38l-11.01-55.14c-.48-2.42-2.61-4.16-5.08-4.16h-63.22c-2.86,0-5.18,2.32-5.18,5.18v194.4c0,2.86,2.32,5.18,5.18,5.18h50.88c2.86,0,5.18-2.32,5.18-5.18v-53.74c0-2.37,3.43-2.71,3.89-.38l11.01,55.14c.48,2.42,2.61,4.16,5.08,4.16h63.22c2.86,0,5.18-2.32,5.18-5.18v-194.4c0-2.86-2.32-5.18-5.18-5.18Z"/>
    <path class="cls-1" d="M589.57,386.74c0-2.31,1.86-4.18,4.18-4.18s4.2,1.86,4.2,4.18v25.67c-.01,4.71,3.78,8.53,8.46,8.53h54.47c2.77,0,5.01-2.26,5.01-5.05v-29.93c0-35.29-31.89-62.74-73.05-62.74s-73.05,27.44-73.05,62.74v88.87c0,35.29,31.89,62.74,73.05,62.74s73.05-27.44,73.05-62.74v-39.37c0-2.79-2.24-5.05-5.01-5.05h-54.47c-4.68,0-8.47,3.82-8.47,8.53v35.11c.01,2.31-1.88,4.18-4.19,4.18s-4.18-1.86-4.18-4.18v-87.31Z"/>
    <path class="cls-1" d="M471.02,330.89c-5.94-2.95-12.82-5.18-20.8-6.47h0c-5.13-.83-10.71-1.27-16.78-1.27-.77,0-1.53,0-2.29.02-4.72.09-9.13.45-13.26,1.06-63.91,9.42-59.24,77.96-59.24,106.17,0,30.32-5.4,107.25,74.79,107.25s74.78-76.93,74.78-107.25c0-24.45,3.51-79.22-37.19-99.51ZM433.43,453.42c-12.71,0-23.02-10.31-23.02-23.02s10.31-23.02,23.02-23.02,23.02,10.3,23.02,23.02-10.31,23.02-23.02,23.02Z"/>
    <path class="cls-1" d="M436.67,548.31c-80.19,0-74.78,76.93-74.78,107.24s-5.41,107.25,74.78,107.25,74.78-76.93,74.78-107.25,5.41-107.24-74.78-107.24ZM436.67,678.57c-12.71,0-23.02-10.3-23.02-23.02s10.31-23.01,23.02-23.01,23.02,10.3,23.02,23.01-10.31,23.02-23.02,23.02Z"/>
    <path class="cls-1" d="M513.53,560.92l30.16,189.71c.67,4.21,4.3,7.31,8.56,7.31h85.72c4.26,0,7.89-3.1,8.56-7.31l30.16-189.71c.65-4.06-2.49-7.74-6.61-7.74h-53.46c-3.04,0-5.61,2.23-6.04,5.24l-14,112.71c-.21,1.72-2.71,1.72-2.92,0l-14-112.71c-.43-3.01-3.01-5.24-6.04-5.24h-53.46c-4.11,0-7.25,3.68-6.61,7.74Z"/>
    <path class="cls-1" d="M831.71,525.03l-30.16-189.7c-.67-4.21-4.3-7.31-8.56-7.31h-85.72c-4.26,0-7.89,3.1-8.56,7.31l-30.15,189.7c-.65,4.07,2.49,7.75,6.61,7.75h53.46c3.03,0,5.61-2.24,6.04-5.24l6.53-45.44c.42-2.94,2.94-5.12,5.91-5.12h6.05c2.97,0,5.49,2.18,5.91,5.12l6.53,45.44c.43,3,3,5.24,6.04,5.24h53.46c4.11,0,7.25-3.68,6.61-7.75ZM750.13,453.42c-12.71,0-23.02-10.31-23.02-23.02s10.31-23.02,23.02-23.02,23.02,10.3,23.02,23.02-10.3,23.02-23.02,23.02Z"/>
  </g>
</svg>