<?xml version="1.0" encoding="UTF-8"?><svg id="Calque_1" xmlns="http://www.w3.org/2000/svg" viewBox="0 0 481.89 411.28"><defs><style>.cls-1{fill:#232d71;}</style></defs><path class="cls-1" d="m450.45,287.8h-20.31v.71c1.68,0,2.82,4.06,2.82,10.24v20.05c0,6-1.5,9.98-3.71,9.98v1.06h24.81v-1.06c-2.21,0-3.62-3.97-3.62-9.98v-13.42c0-5.83,4.33-12.98,8.12-12.98,2.56,0-1.77,3.35-1.77,7.59,0,3.8,3.53,6.62,8.57,6.62,6,0,9.89-3.97,9.89-9.62,0-6.18-4.77-10.15-10.6-10.15-6.18,0-11.39,4.5-14.22,11.65v-10.68Zm-29.32,26.05c-2.03,2.38-6.09,3.88-9.89,3.88-4.95,0-8.92-2.3-11.39-6.53,12.63,0,21.02-4.86,21.02-12.19,0-6.89-7.42-12.01-17.75-12.01-13.42,0-22.25,8.83-22.25,22.08s8.12,21.46,19.96,21.46c10.42,0,18.72-6.45,20.93-16.07l-.62-.62Zm-17.75-15.37c0,6.98-1.68,11.48-4.15,11.74-1.41-2.82-2.21-6.53-2.21-10.95,0-5.74,1.41-10.42,3.44-10.42,1.86,0,2.91,3.88,2.91,9.62m-52.63-25.78c0,4.77,3.97,8.74,8.74,8.74s8.74-3.97,8.74-8.74-3.89-8.74-8.74-8.74-8.74,3.88-8.74,8.74m18.46,15.1h-20.31v.71c1.68,0,2.83,4.06,2.83,10.24v20.05c0,6-1.5,9.98-3.71,9.98v1.06h24.81v-1.06c-2.21,0-3.62-3.97-3.62-9.98v-30.99Zm-109.85,42.03h24.81v-1.06c-2.21,0-3.62-3.97-3.62-9.98v-19.52c.44-3.35,2.38-5.47,5.03-5.47,2.91,0,4.95,2.74,4.95,6.98v20.49c0,4.59-1.68,7.51-3.62,7.51v1.06h24.9v-1.06c-2.21,0-3.8-3.97-3.8-9.98v-18.01c0-4.24,2.12-6.98,5.12-6.98s4.95,2.74,4.95,6.98v20.49c0,4.59-1.59,7.51-3.53,7.51v1.06h24.81v-1.06c-2.21,0-3.8-3.97-3.8-9.98v-17.13c0-8.21-5.83-14.66-14.57-14.66-6.71,0-12.1,3.8-13.95,9.27-1.85-5.56-6.98-9.27-13.69-9.27-5.74,0-10.42,2.83-12.8,7.06v-6.27h-20.31v.71c1.68,0,2.83,4.06,2.83,10.24v20.05c0,6-1.5,9.98-3.71,9.98v1.06Zm-8.83-3.88c-2.21.62-3.71-3.36-3.71-9.89v-7.86c0-12.8-9.62-21.37-22.34-21.37-9.36,0-16.42,4.68-16.42,11.57,0,4.42,2.83,7.24,7.42,7.24,11.13,0,6.71-17.13,10.24-17.13,1.5,0,2.91,3.27,2.91,7.42,0,16.6-22.34,10.86-22.34,24.55,0,5.92,4.24,9.98,10.42,9.98,4.95,0,9.54-2.74,12.63-6.97,0,4.33,3.18,7.24,8.39,7.24,3.8,0,9.01-1.5,13.07-3.8l-.26-.97Zm-21.19-3.36c-.79.79-1.68,1.32-2.65,1.32-1.94,0-3.18-2.65-3.18-6.89,0-7.68,4.24-9.01,5.56-15.9.18,1.94.26,4.06.26,6.36v15.1Zm-85.74,7.15h26.76c16.07,0,26.4-13.25,26.4-31.88s-10.51-32.49-26.93-32.49h-26.23v.88c1.68,0,2.74,3,2.74,7.33v47.95c0,4.33-1.06,7.33-2.74,7.33v.88Zm34.79-33.55c0,20.22-1.85,31.7-9.98,31.7h-3.62v-60.66h3.8c8.65,0,9.8,13.24,9.8,28.96m-74.79,17.66c-2.03,2.38-6.09,3.88-9.89,3.88-4.94,0-8.92-2.3-11.39-6.53,12.63,0,21.01-4.86,21.01-12.19,0-6.89-7.42-12.01-17.75-12.01-13.42,0-22.25,8.83-22.25,22.08s8.12,21.46,19.96,21.46c10.42,0,18.72-6.45,20.93-16.07l-.62-.62Zm-17.75-15.37c0,6.98-1.68,11.48-4.15,11.74-1.41-2.82-2.21-6.53-2.21-10.95,0-5.74,1.41-10.42,3.44-10.42,1.85,0,2.91,3.88,2.91,9.62m-80.97,31.26h49.62v-19.34h-.88c-4.33,10.51-14.66,17.48-25.69,17.48h-1.86v-54.31c0-4.33,1.06-7.33,2.74-7.33v-.88H4.89v.88c1.68,0,2.74,3,2.74,7.33v47.95c0,4.33-1.06,7.33-2.74,7.33v.88Z"/><path class="cls-1" d="m456.29,396.84l-12.03-16.05h-1.54v18.92h1.71v-16.05l12.01,16.05h1.54v-18.92h-1.69v16.05Zm-40.34-6.58c0-2.29.71-4.21,2.14-5.76,1.43-1.56,3.25-2.33,5.47-2.33s4.04.78,5.46,2.33c1.42,1.56,2.13,3.48,2.13,5.76s-.71,4.18-2.13,5.74c-1.42,1.56-3.24,2.33-5.46,2.33s-4.04-.78-5.47-2.33c-1.43-1.56-2.14-3.47-2.14-5.74m14.22,6.9c1.76-1.88,2.64-4.18,2.64-6.9s-.88-5.02-2.64-6.9c-1.76-1.88-3.96-2.81-6.6-2.81s-4.86.94-6.61,2.81c-1.75,1.88-2.62,4.18-2.62,6.9s.87,5.02,2.62,6.9c1.75,1.88,3.95,2.81,6.61,2.81s4.84-.94,6.6-2.81m-25.75-16.36h-1.72v18.92h1.72v-18.92Zm-13.36,17.84c1.17-.89,1.75-2.18,1.75-3.86,0-.67-.13-1.29-.38-1.84-.25-.56-.53-1-.83-1.34-.3-.34-.77-.69-1.41-1.05-.64-.36-1.13-.61-1.48-.76s-.91-.37-1.7-.67c-.72-.27-1.29-.5-1.69-.68-.4-.19-.85-.43-1.32-.73-.48-.3-.83-.66-1.05-1.06-.22-.4-.33-.86-.33-1.36,0-1.08.38-1.89,1.14-2.43.76-.55,1.69-.82,2.8-.82,2.15,0,3.74.72,4.77,2.17l1.16-1.19c-.62-.74-1.45-1.34-2.47-1.79-1.03-.45-2.18-.68-3.46-.68-1.6,0-2.94.42-4.04,1.26-1.09.84-1.64,2.04-1.64,3.61,0,.59.11,1.13.34,1.61.23.49.47.88.74,1.17.27.3.69.6,1.27.92.58.32,1.04.55,1.38.69.34.14.87.35,1.59.62.64.24,1.13.42,1.48.57.34.14.77.35,1.29.63.51.28.9.55,1.15.82.25.27.48.61.67,1.02.19.41.29.87.29,1.38,0,1.16-.42,2.03-1.26,2.61-.84.58-1.92.87-3.23.87s-2.54-.31-3.58-.92c-1.04-.61-1.76-1.39-2.15-2.33l-1.21,1.26c.61,1.06,1.53,1.93,2.76,2.61,1.24.68,2.62,1.02,4.15,1.02,1.83,0,3.33-.45,4.5-1.34m-22.25,0c1.17-.89,1.75-2.18,1.75-3.86,0-.67-.13-1.29-.38-1.84-.25-.56-.53-1-.83-1.34-.3-.34-.77-.69-1.41-1.05-.64-.36-1.13-.61-1.48-.76-.35-.14-.91-.37-1.7-.67-.72-.27-1.29-.5-1.69-.68-.4-.19-.85-.43-1.32-.73-.48-.3-.83-.66-1.05-1.06-.22-.4-.33-.86-.33-1.36,0-1.08.38-1.89,1.14-2.43.76-.55,1.69-.82,2.8-.82,2.15,0,3.74.72,4.77,2.17l1.16-1.19c-.62-.74-1.45-1.34-2.47-1.79-1.03-.45-2.18-.68-3.46-.68-1.6,0-2.94.42-4.04,1.26-1.09.84-1.64,2.04-1.64,3.61,0,.59.11,1.13.34,1.61.23.49.48.88.74,1.17.27.3.69.6,1.27.92.58.32,1.04.55,1.38.69.34.14.87.35,1.59.62.64.24,1.13.42,1.48.57.34.14.77.35,1.29.63.51.28.9.55,1.15.82.25.27.47.61.67,1.02.19.41.29.87.29,1.38,0,1.16-.42,2.03-1.26,2.61-.84.58-1.92.87-3.23.87s-2.54-.31-3.58-.92c-1.04-.61-1.76-1.39-2.14-2.33l-1.21,1.26c.6,1.06,1.53,1.93,2.76,2.61,1.24.68,2.62,1.02,4.15,1.02,1.83,0,3.33-.45,4.5-1.34m-28.07-16.05l4.52,11.56h-9.01l4.49-11.56Zm8.55,17.13l-7.59-18.92h-1.89l-7.59,18.92h1.87l1.59-4.11h10.17l1.59,4.11h1.87Zm-32.75-9.99v-7.42h4.77c1.03,0,1.9.36,2.64,1.07.73.72,1.1,1.59,1.1,2.64s-.36,1.96-1.08,2.66-1.61,1.05-2.65,1.05h-4.77Zm-1.72-8.93v18.92h1.72v-8.53h4.87c1.45,0,2.67-.51,3.68-1.51,1.01-1.01,1.51-2.24,1.51-3.68s-.51-2.67-1.53-3.68c-1.02-1.01-2.24-1.51-3.67-1.51h-6.58Zm-32.32,1.51h4.82c1.01,0,1.88.36,2.6,1.07.72.72,1.09,1.58,1.09,2.59s-.36,1.9-1.07,2.61c-.72.71-1.59,1.07-2.61,1.07h-4.82v-7.34Zm8.8,7.04c.84-.94,1.26-2.05,1.26-3.33,0-1.45-.51-2.68-1.51-3.7-1.01-1.02-2.24-1.53-3.68-1.53h-6.58v18.92h1.72v-8.63h3.91l4.67,8.63h1.92l-4.84-8.7c1.26-.17,2.31-.72,3.15-1.67m-28.23-6.76l4.52,11.56h-9.01l4.49-11.56Zm8.55,17.13l-7.59-18.92h-1.89l-7.59,18.92h1.87l1.59-4.11h10.17l1.59,4.11h1.87Zm-32.75-9.99v-7.42h4.77c1.03,0,1.9.36,2.64,1.07.73.72,1.1,1.59,1.1,2.64s-.36,1.96-1.08,2.66c-.72.7-1.61,1.05-2.65,1.05h-4.77Zm-1.72-8.93v18.92h1.72v-8.53h4.87c1.45,0,2.67-.51,3.68-1.51s1.51-2.24,1.51-3.68-.51-2.67-1.53-3.68c-1.02-1.01-2.24-1.51-3.67-1.51h-6.58Zm-35.57,1.51h3.3c2.17,0,4.01.77,5.51,2.32,1.51,1.55,2.26,3.42,2.26,5.63s-.75,4.07-2.26,5.61c-1.51,1.54-3.34,2.31-5.51,2.31h-3.3v-15.87Zm3.33,17.41c2.61,0,4.84-.93,6.69-2.78,1.85-1.85,2.77-4.08,2.77-6.69s-.93-4.84-2.77-6.69c-1.85-1.85-4.08-2.77-6.69-2.77h-5.02v18.92h5.02Zm-17.31-2.88l-12.03-16.05h-1.54v18.92h1.72v-16.05l12.01,16.05h1.54v-18.92h-1.69v16.05Zm-31.28-14.25l4.52,11.56h-9.01l4.49-11.56Zm8.55,17.13l-7.59-18.92h-1.89l-7.59,18.92h1.87l1.59-4.11h10.17l1.59,4.11h1.87Zm-35.5-7.85l-7.44-11.08h-1.79v18.92h1.72v-16.37l7.52,11.33,7.57-11.33v16.37h1.69v-18.92h-1.77l-7.49,11.08Zm-28.68-9.56h4.82c1.01,0,1.88.36,2.6,1.07.72.72,1.08,1.58,1.08,2.59s-.36,1.9-1.07,2.61c-.72.71-1.59,1.07-2.61,1.07h-4.82v-7.34Zm8.81,7.04c.84-.94,1.26-2.05,1.26-3.33,0-1.45-.5-2.68-1.51-3.7-1.01-1.02-2.24-1.53-3.68-1.53h-6.58v18.92h1.71v-8.63h3.91l4.67,8.63h1.92l-4.84-8.7c1.26-.17,2.31-.72,3.15-1.67m-21.19,4.14v-12.69h-1.69v12.44c0,1.45-.51,2.68-1.54,3.68s-2.28,1.51-3.76,1.51-2.71-.51-3.73-1.51-1.54-2.24-1.54-3.68v-12.44h-1.72v12.69c0,1.8.68,3.33,2.03,4.59,1.35,1.26,3.01,1.89,4.96,1.89s3.6-.63,4.96-1.89c1.35-1.26,2.03-2.79,2.03-4.59m-40.82-3.23c0-2.29.72-4.21,2.15-5.76,1.43-1.56,3.25-2.33,5.47-2.33s4.04.78,5.46,2.33c1.42,1.56,2.13,3.48,2.13,5.76s-.71,4.18-2.13,5.74c-1.42,1.56-3.24,2.33-5.46,2.33s-4.04-.78-5.47-2.33c-1.43-1.56-2.15-3.47-2.15-5.74m14.22,6.9c1.76-1.88,2.64-4.18,2.64-6.9s-.88-5.02-2.64-6.9c-1.76-1.88-3.96-2.81-6.6-2.81s-4.86.94-6.61,2.81c-1.75,1.88-2.62,4.18-2.62,6.9s.87,5.02,2.62,6.9c1.75,1.88,3.95,2.81,6.61,2.81s4.84-.94,6.6-2.81m-25.75-12.9v-2.14c-1.6-1.04-3.36-1.57-5.3-1.57-2.61,0-4.83.93-6.66,2.78-1.83,1.85-2.75,4.18-2.75,6.99s.91,5.14,2.74,6.99c1.83,1.85,4.06,2.77,6.7,2.77,1.88,0,3.64-.53,5.27-1.59v-8.53h-6.43v1.54h4.89v6c-1.14.62-2.38.93-3.71.93-2.2,0-4.07-.77-5.59-2.3-1.52-1.53-2.28-3.47-2.28-5.83s.76-4.32,2.28-5.85c1.52-1.53,3.39-2.3,5.61-2.3,2.05,0,3.79.7,5.22,2.09"/><path class="cls-1" d="m237.34,94.7v81.97h70.05c6.58,0,11.92-5.34,11.92-11.92v-70.05h-81.97Z"/><path class="cls-1" d="m167.29,12.74c-6.58,0-11.92,5.34-11.92,11.92v70.05h81.97V12.74h-70.05Z"/></svg>