<svg xmlns="http://www.w3.org/2000/svg" xmlns:xlink="http://www.w3.org/1999/xlink" width="113.399" height="113.893" viewBox="0 0 113.399 113.893">
  <defs>
    <clipPath id="clip-path">
      <rect id="Rectangle_42" data-name="Rectangle 42" width="113.399" height="113.893" fill="none"/>
    </clipPath>
  </defs>
  <g id="Groupe_14" data-name="Groupe 14" transform="translate(0 0)">
    <g id="Groupe_13" data-name="Groupe 13" transform="translate(0 0)" clip-path="url(#clip-path)">
      <path id="Tracé_75" data-name="Tracé 75" d="M39.458,36.177a33.088,33.088,0,0,0-2.842,10.032,81.063,81.063,0,0,0-.843,10.034,10.686,10.686,0,0,0,.6,4.488,2.648,2.648,0,0,0,1.409,1.546,1.7,1.7,0,0,0,1.4-.11,1.307,1.307,0,0,0,.673-.908,2.038,2.038,0,0,0-.338-1.343l-.078-.15a8.219,8.219,0,0,1-.484-4.169c.178-3.275.363-6.661.861-9.969.687-4.575,1.892-7.878,3.787-10.395a14.468,14.468,0,0,1,11.877-5.653,5.756,5.756,0,0,1,4.107,1.468c1.374,1.453,1.212,3.717.993,4.937a18.839,18.839,0,0,1-4.3,8.406A6.977,6.977,0,0,1,53.7,46.616a7.711,7.711,0,0,1-2.176.411c-.258.025-.514.048-.769.081a13.482,13.482,0,0,0-8.068,4.106,2.353,2.353,0,0,0-.8,1.9c.187,1.139,1.5,1.594,2.707,1.453,2.295-.268,4.225-1.559,6.092-2.808a15.232,15.232,0,0,1,5.075-2.57,9.114,9.114,0,0,1,5.106.5A7.268,7.268,0,0,1,65.084,53.2c1.3,2.816-.3,6.02-1.053,7.266-2.311,3.847-6.1,6.554-9.138,8.483-5.033,3.2-9.387,5.057-13.7,5.862a11.123,11.123,0,0,1-6.339-.28,5.1,5.1,0,0,1-3.392-4.615,6.358,6.358,0,0,1,.167-.817c.317-1.333.489-2.24,0-2.709a.879.879,0,0,0-.811-.243c-.516.116-.95.689-1.414,1.878a6.3,6.3,0,0,0,.463,5.758A8.271,8.271,0,0,0,35.089,77a16.047,16.047,0,0,0,3.547.372,24.793,24.793,0,0,0,8.021-1.5,43.152,43.152,0,0,0,17.5-11.646c3.64-4.056,6.038-9.8,1.849-13.776a15.228,15.228,0,0,0-8.2-3.751l-.113-.02c2.88-3.434,5.79-7.011,5.939-11.94a6.07,6.07,0,0,0-2.484-5.331c-3.19-2.389-8.787-2.414-12.431-1.224a16.113,16.113,0,0,0-1.822.725,15.829,15.829,0,0,0-7.438,7.264M49.527,49.754a18.157,18.157,0,0,1-3,1.745,5.83,5.83,0,0,1,.585-.492,8.614,8.614,0,0,1,2.414-1.253" transform="translate(6.898 6.539)" fill="#103e29"/>
      <path id="Tracé_76" data-name="Tracé 76" d="M0,39.1c.014-.206.041-.451.081-.733s.079-.524.12-.725.1-.438.168-.715a6.678,6.678,0,0,1,.212-.685L14.56,34.58a2.312,2.312,0,0,1,.09.706,4.13,4.13,0,0,1-.077.794,1.45,1.45,0,0,1-.452.861,2.2,2.2,0,0,1-1.167.353l-6.407.628q-.888.085-1.957.17c-.712.056-1.366.1-1.958.129l-.021.108q.682.288,1.536.722c.568.289,1.054.539,1.458.747l7.3,3.969a2.454,2.454,0,0,1-.026.512c-.027.183-.059.372-.1.567a5.878,5.878,0,0,1-.167.628,2.836,2.836,0,0,1-.23.545l-.141.053Zm10.239,2.11c-.016.078-.041.2-.077.354s-.069.316-.107.474-.059.276-.074.353l-.245,1.226L7.907,42.452l.214-1.079c.017-.079.038-.191.063-.337s.051-.291.076-.435l.061-.322.347-1.73c.016-.079.04-.189.072-.336s.066-.29.1-.436.057-.256.073-.334l.222-1.108,2.113-.244L11,37.306c-.017.078-.04.2-.069.362s-.056.323-.085.483-.05.279-.067.355Z" transform="translate(0 8.248)" fill="#103e29"/>
      <path id="Tracé_77" data-name="Tracé 77" d="M8.693,20.735a2.308,2.308,0,0,1,.742.887,2.779,2.779,0,0,1,.313,1.027,6.7,6.7,0,0,0-1.512,1.014,5.277,5.277,0,0,0-1.151,1.428,3.448,3.448,0,0,0-.45,1.863,3.287,3.287,0,0,0,.8,1.881,7.846,7.846,0,0,0,2.351,1.809,5.956,5.956,0,0,0,3.682.956,3.277,3.277,0,0,0,2.366-1.837,7.8,7.8,0,0,0,.715-1.735,13.35,13.35,0,0,0,.3-1.359l2.226-.285a13.388,13.388,0,0,1-.317,1.4,17.2,17.2,0,0,1-.555,1.647,14.305,14.305,0,0,1-.791,1.693,6.247,6.247,0,0,1-1.752,2.1,4.726,4.726,0,0,1-2.157.882,6.321,6.321,0,0,1-2.434-.163,11.01,11.01,0,0,1-2.566-1.034,8.961,8.961,0,0,1-2.561-1.993A6.313,6.313,0,0,1,4.66,28.647a5.455,5.455,0,0,1-.191-2.332,6.225,6.225,0,0,1,.707-2.157,8.323,8.323,0,0,1,1.558-2.025,7.915,7.915,0,0,1,1.958-1.4m3.589,3.915a1.763,1.763,0,0,1,1.034-.988,1.7,1.7,0,0,1,1.205.224l.478.263-1.812,3.3a2.127,2.127,0,0,1-.385.519.808.808,0,0,1-.5.229,1.192,1.192,0,0,1-.658-.18,2.659,2.659,0,0,1-.45-.316c-.149-.126-.28-.246-.39-.36Zm2.712,2.233q-.617-.34-1.183-.7a6.635,6.635,0,0,1-.977-.746l1.687-1.552,4.558,2.5L17.951,28.5Z" transform="translate(1.054 4.946)" fill="#103e29"/>
      <path id="Tracé_78" data-name="Tracé 78" d="M11.081,16.521l.01-.189L12.768,14.7l1.453,1.492c.194.2.36.365.5.5s.3.3.492.488l4.768,4.9c.145.145.274.284.391.415s.255.276.412.435l1.46,1.5-.739.72a1.392,1.392,0,0,1-1.043.45,1.552,1.552,0,0,1-1.053-.525Zm5.885-5.914a3.723,3.723,0,0,1,.422.328c.125.115.239.223.341.327a3.518,3.518,0,0,1,.331.411,2.949,2.949,0,0,1,.308.545l-3.182,3.1c-.114.11-.265.256-.455.436s-.384.365-.582.552-.375.354-.526.492l-1.466-1.5Zm3.171,4.846a3.453,3.453,0,0,1,.445.308,4.45,4.45,0,0,1,.374.333,4.559,4.559,0,0,1,.328.388,3.372,3.372,0,0,1,.3.456L19.11,19.346c-.114.113-.265.256-.455.437s-.384.364-.582.554-.372.353-.519.5l-1.418-1.458c.146-.141.317-.31.51-.5s.385-.384.57-.568.334-.332.447-.442ZM25.266,18.5a3,3,0,0,1,.883,1.4,1.493,1.493,0,0,1-.6,1.3l-3.921,3.82-1.426-1.463c.246-.27.487-.529.716-.781s.5-.533.821-.84Z" transform="translate(2.643 2.53)" fill="#103e29"/>
      <path id="Tracé_79" data-name="Tracé 79" d="M21.068,7.687a5.933,5.933,0,0,1,.646-.425c.272-.159.484-.276.639-.354s.373-.182.623-.3a6.708,6.708,0,0,1,.746-.291l.733,2.894-.151.12c.263.431.545.919.852,1.464s.609,1.095.905,1.648.562,1.061.793,1.523l2.382,4.741a4.643,4.643,0,0,1-.512.341c-.176.1-.337.185-.485.26s-.306.147-.507.238a4.131,4.131,0,0,1-.6.215Zm5.617,3.537q-.656-.511-1.24-1.013c-.391-.333-.752-.642-1.087-.924l-1.67-.716,1.034-2.25,6.863,5.309q.7.557,1.336,1.094t1.139.938l1.734.649-1.206,2.216Zm3.535-8.144,6.058,12.062a6.057,6.057,0,0,1-.646.425q-.4.234-.664.367t-.637.3a6.825,6.825,0,0,1-.742.291l-.635-2.789.146-.129q-.431-.726-.909-1.579t-.912-1.668q-.431-.816-.737-1.428L28.768,5.405a1.8,1.8,0,0,1-.254-1.214,1.372,1.372,0,0,1,.8-.8l.727-.365Z" transform="translate(5.025 0.722)" fill="#103e29"/>
      <path id="Tracé_80" data-name="Tracé 80" d="M42.874,5.094a5.176,5.176,0,0,0-.438-1.473,2.5,2.5,0,0,0-.951-1.081,2.316,2.316,0,0,0-1.613-.232A2.285,2.285,0,0,0,37.95,3.921a8.2,8.2,0,0,0-.11,3.851,6.41,6.41,0,0,0,1.347,3.38,2.56,2.56,0,0,0,2.413.864,4.174,4.174,0,0,0,1.739-.686,8.5,8.5,0,0,0,1.478-1.288,3.476,3.476,0,0,1,.847.6,2.311,2.311,0,0,1,.6.831A6.8,6.8,0,0,1,45.08,12.68a7.49,7.49,0,0,1-1.626,1,7.336,7.336,0,0,1-1.948.578,4.878,4.878,0,0,1-2.56-.2,4.582,4.582,0,0,1-1.852-1.328,7.247,7.247,0,0,1-1.224-2.088,11.9,11.9,0,0,1-.658-2.472,9.3,9.3,0,0,1,.131-4.125A5.21,5.21,0,0,1,37,1.438,5.4,5.4,0,0,1,39.628.279a5.719,5.719,0,0,1,2.652.146A4.326,4.326,0,0,1,44.189,1.6a3.477,3.477,0,0,1,.9,1.858,1.44,1.44,0,0,1-.191,1.1,1.454,1.454,0,0,1-1.013.524,3.132,3.132,0,0,1-.51.038c-.159,0-.324-.01-.5-.022" transform="translate(8.359 0.046)" fill="#103e29"/>
      <path id="Tracé_81" data-name="Tracé 81" d="M48.867.109,49.02,0l2.32.317L51.059,2.38c-.038.276-.068.509-.085.7s-.048.421-.085.689L49.96,10.54c-.026.2-.056.391-.087.564s-.061.372-.09.593L49.5,13.77l-1.022-.14a1.4,1.4,0,0,1-1-.546,1.552,1.552,0,0,1-.232-1.153Zm7.161,12.4a2.977,2.977,0,0,1-.559,1.556,1.489,1.489,0,0,1-1.391.329l-5.425-.742.277-2.025q.544.045,1.054.084c.341.027.731.071,1.168.131Zm-.752-5.92a3.366,3.366,0,0,1,.032.541,4.451,4.451,0,0,1-.033.5,4.411,4.411,0,0,1-.1.5A3.818,3.818,0,0,1,55,8.646l-3.42-.468c-.157-.021-.365-.052-.624-.09l-.8-.119q-.407-.061-.711-.1l.276-2.015c.2.028.441.058.712.093l.8.1c.258.032.467.058.623.081Zm1.871-5.479a3.373,3.373,0,0,1,0,.536q-.019.253-.048.468a3.616,3.616,0,0,1-.12.515,3.091,3.091,0,0,1-.239.577l-4.4-.6c-.157-.021-.367-.051-.623-.09s-.525-.077-.8-.119-.508-.077-.71-.111L50.5.2Z" transform="translate(11.264 0)" fill="#103e29"/>
      <path id="Tracé_82" data-name="Tracé 82" d="M66.648,4.337q1,.533,1.943,1.049t1.832,1.021a6.4,6.4,0,0,1,1.906,1.554,3.142,3.142,0,0,1,.716,1.8,3.568,3.568,0,0,1-.528,1.97,3.005,3.005,0,0,1-2.286,1.507,2.669,2.669,0,0,1-1.372-.213l.146-.259a2.936,2.936,0,0,1,1.089,1.214,3.787,3.787,0,0,1,.391,1.7A3.526,3.526,0,0,1,70,17.453,3.9,3.9,0,0,1,68.5,19a3.491,3.491,0,0,1-2.073.375,6.628,6.628,0,0,1-2.56-.909q-1.016-.58-1.969-1.149t-1.968-1.174l-.05-.175,6.6-11.584ZM62.853,15.792c.333.175.66.352.975.533l.871.5a2.93,2.93,0,0,0,1.142.411,1.774,1.774,0,0,0,.883-.119,2.056,2.056,0,0,0,.656-.45,3,3,0,0,0,.451-.592,2.628,2.628,0,0,0,.308-.961,1.926,1.926,0,0,0-.209-1.117,2.631,2.631,0,0,0-1.116-1.047l-2.621-1.492.933-1.637L67.557,11.2a2.388,2.388,0,0,0,1.252.386,1.475,1.475,0,0,0,.889-.32,2.437,2.437,0,0,0,.578-.675,2.338,2.338,0,0,0,.287-.836,1.444,1.444,0,0,0-.18-.907,2.377,2.377,0,0,0-.962-.867c-.207-.118-.461-.265-.764-.441s-.58-.339-.827-.489Z" transform="translate(14.281 1.035)" fill="#103e29"/>
      <path id="Tracé_83" data-name="Tracé 83" d="M78.829,25.33a5.814,5.814,0,0,1-2.486,1.444,4.1,4.1,0,0,1-2.478-.137,6.72,6.72,0,0,1-3.728-4.051,4.1,4.1,0,0,1,.077-2.475,5.793,5.793,0,0,1,1.646-2.357l6.371-5.862.183-.006.644.7a1.417,1.417,0,0,1,.463,1.075,1.779,1.779,0,0,1-.666,1.091l-5.3,4.876A3.575,3.575,0,0,0,72.3,21.658a2.413,2.413,0,0,0,.763,1.987,2.394,2.394,0,0,0,1.913.921,3.584,3.584,0,0,0,2.123-1.09l6.408-5.9a4.154,4.154,0,0,1,.488.42q.238.236.417.432c.116.126.255.285.416.473a4.53,4.53,0,0,1,.4.544Z" transform="translate(16.691 2.835)" fill="#103e29"/>
      <path id="Tracé_84" data-name="Tracé 84" d="M86.345,29c.349.054.752.133,1.211.237s.9.2,1.313.307l.027-.079q-.16-.243-.372-.6c-.139-.24-.279-.494-.417-.762s-.269-.52-.39-.759-.219-.436-.292-.591L86.109,24a2.124,2.124,0,0,1,.354-.25c.12-.071.244-.134.369-.194a4.76,4.76,0,0,1,.59-.237,4.359,4.359,0,0,1,.611-.149l3.626,7.6c-.3.26-.533.458-.695.594a4.192,4.192,0,0,1-.369.286,1.885,1.885,0,0,1-.224.129,1.569,1.569,0,0,1-.437.133,1.964,1.964,0,0,1-.545,0L81.106,30.58q-.533-.085-1.226-.233t-1.278-.3l-.028.079c.223.37.447.77.677,1.2s.421.8.572,1.117l.726,1.521a6.865,6.865,0,0,0,.677,1.156,4.426,4.426,0,0,0,.675.738,4.245,4.245,0,0,1-.447.36,3.637,3.637,0,0,1-.536.318,1.209,1.209,0,0,1-1.116.032,2.02,2.02,0,0,1-.855-.983l-3.254-6.822c.294-.242.52-.424.68-.542s.281-.208.369-.264a2.01,2.01,0,0,1,.228-.133,1.8,1.8,0,0,1,.5-.15,1.607,1.607,0,0,1,.555.01Z" transform="translate(18.054 5.525)" fill="#103e29"/>
      <path id="Tracé_85" data-name="Tracé 85" d="M89.792,40.4q.477.223,1.1.562t1.174.659l.05-.068c-.058-.185-.121-.411-.188-.682s-.133-.552-.192-.848-.113-.573-.165-.837-.089-.479-.116-.648l-.5-3.015a2.151,2.151,0,0,1,.41-.142c.134-.033.27-.061.407-.083a4.7,4.7,0,0,1,.632-.066,4.366,4.366,0,0,1,.628.027l1.377,8.307c-.36.167-.639.294-.832.38a4.479,4.479,0,0,1-.433.172,2.289,2.289,0,0,1-.251.062,1.564,1.564,0,0,1-.457,0,1.842,1.842,0,0,1-.521-.154l-7.59-3.569q-.49-.229-1.115-.564t-1.146-.639l-.05.069q.165.624.318,1.339c.1.476.182.886.239,1.232l.276,1.663a6.822,6.822,0,0,0,.329,1.3,4.343,4.343,0,0,0,.446.9,4.267,4.267,0,0,1-.531.223,3.542,3.542,0,0,1-.6.156,1.216,1.216,0,0,1-1.081-.277,2.024,2.024,0,0,1-.547-1.182l-1.235-7.456c.349-.152.618-.264.8-.336s.328-.12.427-.15a1.815,1.815,0,0,1,.256-.063,1.786,1.786,0,0,1,.521,0,1.592,1.592,0,0,1,.531.162Z" transform="translate(18.991 8.403)" fill="#103e29"/>
      <path id="Tracé_86" data-name="Tracé 86" d="M4.484,51.891a4.9,4.9,0,0,1,.629-.05,2.045,2.045,0,0,1,.632.059,2.134,2.134,0,0,1,.328.57A3.25,3.25,0,0,1,6.3,53.2a3.383,3.383,0,0,1,.032.762,2.054,2.054,0,0,1-.119.658,1.968,1.968,0,0,1-.577.261,4.936,4.936,0,0,1-.609.16,4.934,4.934,0,0,1-.634.054,2.02,2.02,0,0,1-.632-.056,1.728,1.728,0,0,1-.333-.572,3.591,3.591,0,0,1-.22-.738,3.4,3.4,0,0,1-.038-.765,1.957,1.957,0,0,1,.126-.646,2.1,2.1,0,0,1,.576-.266,4.68,4.68,0,0,1,.616-.163" transform="translate(0.754 12.364)" fill="#dd4f6b"/>
      <path id="Tracé_87" data-name="Tracé 87" d="M13.518,67.463a4.23,4.23,0,0,0,1.134-.831,2.489,2.489,0,0,0,.671-1.227,2.351,2.351,0,0,0-.3-1.582,2.388,2.388,0,0,0-2.156-1.361,7.75,7.75,0,0,0-3.709,1.07,6.707,6.707,0,0,0-2.82,2.352,2.5,2.5,0,0,0-.114,2.554A3.865,3.865,0,0,0,7.3,69.718a6.663,6.663,0,0,0,1.657.936,2.34,2.34,0,0,1-.214.741,1.912,1.912,0,0,1-.433.622,5.858,5.858,0,0,1-1.359-.627,6.524,6.524,0,0,1-1.282-1.04A5.971,5.971,0,0,1,4.65,68.917a4.017,4.017,0,0,1-.5-2.166A4.22,4.22,0,0,1,4.8,64.807,6.817,6.817,0,0,1,6.284,63.15,11.517,11.517,0,0,1,8.3,61.837a9.041,9.041,0,0,1,3.64-1.121,4.777,4.777,0,0,1,2.731.6A4.506,4.506,0,0,1,16.4,63.15a4.811,4.811,0,0,1,.591,2.273,3.836,3.836,0,0,1-.5,1.926,3.155,3.155,0,0,1-1.3,1.253,1.225,1.225,0,0,1-.79.15.928.928,0,0,1-.624-.561,2.363,2.363,0,0,1-.151-.352c-.033-.107-.066-.233-.1-.377" transform="translate(0.987 14.48)" fill="#dd4f6b"/>
      <path id="Tracé_88" data-name="Tracé 88" d="M17.109,77.687a6.618,6.618,0,0,1-2.153,1.308,3.754,3.754,0,0,1-2.124.144,3.553,3.553,0,0,1-1.865-1.2,3.533,3.533,0,0,1-.935-2.006,3.745,3.745,0,0,1,.436-2.086,7.283,7.283,0,0,1,3.725-3.257,3.733,3.733,0,0,1,2.124-.145,3.527,3.527,0,0,1,1.853,1.184,3.567,3.567,0,0,1,.945,2.016,3.742,3.742,0,0,1-.43,2.086,6.641,6.641,0,0,1-1.577,1.954m-3.875-4.425a7.36,7.36,0,0,0-1.121,1.22,2.728,2.728,0,0,0-.54,1.3,1.6,1.6,0,0,0,.455,1.253,1.572,1.572,0,0,0,1.173.6,2.767,2.767,0,0,0,1.359-.368,7.608,7.608,0,0,0,2.478-2.17,2.839,2.839,0,0,0,.549-1.3,1.555,1.555,0,0,0-.437-1.25,1.584,1.584,0,0,0-1.189-.608,2.8,2.8,0,0,0-1.369.37,7.257,7.257,0,0,0-1.357.95" transform="translate(2.389 16.78)" fill="#dd4f6b"/>
      <path id="Tracé_89" data-name="Tracé 89" d="M22.375,76.4a.828.828,0,0,1,.458.7A1.744,1.744,0,0,1,22.5,78l-4.279,6.638a4.178,4.178,0,0,1-.763-.4,4.643,4.643,0,0,1-.706-.541l4.9-7.608.168-.046Zm1.608,5.054a2.758,2.758,0,0,0,.542-1.329.916.916,0,0,0-.471-.8,2,2,0,0,0-.962-.279,3.872,3.872,0,0,0-1.226.131,3.728,3.728,0,0,0-1.178.536l.97-1.5a5.179,5.179,0,0,1,1.308-.383,4.28,4.28,0,0,1,1.294,0,2.9,2.9,0,0,1,1.131.422,2.119,2.119,0,0,1,.882,1.024,2.276,2.276,0,0,1,.083,1.283,3.958,3.958,0,0,1-.571,1.35l-3.47,5.381a5.237,5.237,0,0,1-1.476-.952Zm4.111,2.627a2.613,2.613,0,0,0,.529-1.326.928.928,0,0,0-.477-.791,2,2,0,0,0-.939-.281,3.812,3.812,0,0,0-1.221.124,4.42,4.42,0,0,0-1.263.554l1.121-1.738a6.521,6.521,0,0,1,1.294-.229,4.752,4.752,0,0,1,1.265.067,3.134,3.134,0,0,1,1.1.437,2.056,2.056,0,0,1,.869,1.024,2.328,2.328,0,0,1,.077,1.282,4.1,4.1,0,0,1-.576,1.357l-2.426,3.761a6.562,6.562,0,0,0-.441.791,2.286,2.286,0,0,0-.215.738,1.619,1.619,0,0,1-.564-.033,1.71,1.71,0,0,1-.572-.238.834.834,0,0,1-.451-.634,1.465,1.465,0,0,1,.292-.84Z" transform="translate(3.996 18.137)" fill="#dd4f6b"/>
      <path id="Tracé_90" data-name="Tracé 90" d="M43.784,87.111a6.071,6.071,0,0,0,.935.072,2.52,2.52,0,0,0,.773-.1.985.985,0,0,1,.121.425,2.108,2.108,0,0,1-.012.478.794.794,0,0,1-.483.7,1.947,1.947,0,0,1-.956.061l-4.035-.612a2.694,2.694,0,0,0-1.539.144,2.226,2.226,0,0,0-.962.811,2.811,2.811,0,0,0-.435,1.128,2.239,2.239,0,0,0,.285,1.652,1.843,1.843,0,0,0,1.315.774,3.559,3.559,0,0,0,1.411-.057,3.655,3.655,0,0,0,1.106-.448l.391-2.581q.059-.392.163-.955t.188-1.007l1.622.245c-.022.3-.058.644-.11,1.024s-.1.694-.133.936l-.3,1.952q-.1.639-.18,1.391t-.121,1.372a3.124,3.124,0,0,1-.838-.033,3.572,3.572,0,0,1-.8-.206l-.021-.759a5.053,5.053,0,0,1-1.432.5,4.52,4.52,0,0,1-1.559.035,3.53,3.53,0,0,1-1.792-.748,3.005,3.005,0,0,1-.947-1.432,4.078,4.078,0,0,1-.115-1.845A3.637,3.637,0,0,1,37.4,87.22a2.734,2.734,0,0,1,1.53-.249l-.041.265a2.427,2.427,0,0,1-1.211-.618,2.932,2.932,0,0,1-.777-1.19,3.027,3.027,0,0,1-.131-1.5,3.206,3.206,0,0,1,.682-1.567,3.128,3.128,0,0,1,1.442-.986,4.289,4.289,0,0,1,2.066-.135,9.942,9.942,0,0,1,1.718.42,9.027,9.027,0,0,1,1.4.594,2.634,2.634,0,0,1-.235.748,1.635,1.635,0,0,1-.457.6q-.559-.271-1.177-.51a6.34,6.34,0,0,0-1.343-.348,1.971,1.971,0,0,0-1.538.307,1.869,1.869,0,0,0-.723,1.273,1.94,1.94,0,0,0,.322,1.49,2.335,2.335,0,0,0,1.615.8Z" transform="translate(8.412 19.361)" fill="#dd4f6b"/>
      <path id="Tracé_91" data-name="Tracé 91" d="M50.969,81.98l.078-.141,1.6-.374.347,1.482c.058.251.109.456.151.608s.092.355.15.6l1.688,7.223c.035.15.066.292.09.424s.056.281.093.442l.353,1.51-.7.163a.95.95,0,0,1-.8-.13,1.221,1.221,0,0,1-.467-.767Zm7.055-1.772a3.054,3.054,0,0,1,.133.372c.035.123.063.234.088.334a2.86,2.86,0,0,1,.058.389,2.292,2.292,0,0,1,0,.461l-4.2.982-.5.114c-.2.047-.4.093-.614.135l-.578.116L52.06,81.6Zm.308,5.536a2.95,2.95,0,0,1,.157.375c.047.137.084.258.108.359s.043.223.062.365a3.353,3.353,0,0,1,.027.411l-3.344.78c-.134.032-.3.068-.5.111s-.4.09-.614.135-.4.089-.578.13l-.344-1.474c.175-.041.368-.085.576-.139l.609-.151c.2-.051.363-.09.5-.12Zm2.534,5.121a2.209,2.209,0,0,1,.031,1.258,1.069,1.069,0,0,1-.829.567l-5.135,1.2-.344-1.475c.265-.079.528-.16.79-.24s.571-.162.92-.244Z" transform="translate(12.156 19.13)" fill="#dd4f6b"/>
      <path id="Tracé_92" data-name="Tracé 92" d="M65.08,80.122a2.277,2.277,0,0,1,.294-.209c.1-.056.188-.107.28-.151a3.051,3.051,0,0,1,.426-.17,2.152,2.152,0,0,1,.433-.093l.077.056q.18,1.091.381,2.378t.391,2.574q.19,1.286.352,2.413t.266,1.916a5.132,5.132,0,0,1-.521.341c-.194.111-.384.212-.572.3a1.443,1.443,0,0,1-.8.182,1.538,1.538,0,0,1-.8-.557l-5.778-6.118a2.98,2.98,0,0,1,.409-.433,1.943,1.943,0,0,1,.39-.263.86.86,0,0,1,1.183.279l2.915,3.159c.224.24.453.5.69.773s.457.534.661.778.365.44.485.593a.167.167,0,0,0,.219.058Z" transform="translate(14.194 18.961)" fill="#dd4f6b"/>
      <path id="Tracé_93" data-name="Tracé 93" d="M70.589,82.355l-.812-1.039,3.519-2.751-.149-.188a3.876,3.876,0,0,0-.9-.85,1.866,1.866,0,0,0-1.014-.338,1.652,1.652,0,0,0-1.049.4,1.545,1.545,0,0,0-.62,1.522,4.409,4.409,0,0,0,1,2.047l.341.437a6.58,6.58,0,0,0,1.134,1.156,2.2,2.2,0,0,0,1.2.492,1.867,1.867,0,0,0,1.271-.471,4.208,4.208,0,0,0,.91-.975,7.771,7.771,0,0,0,.632-1.144,1.667,1.667,0,0,1,.632.2,2.276,2.276,0,0,1,.523.37,5.245,5.245,0,0,1-.732,1.531A5.851,5.851,0,0,1,75.217,84.1a3.581,3.581,0,0,1-1.626.773,3.059,3.059,0,0,1-1.543-.14,4.6,4.6,0,0,1-1.413-.834,8.676,8.676,0,0,1-1.25-1.308A6.8,6.8,0,0,1,68.2,80.4a3.8,3.8,0,0,1-.074-2.114,3.3,3.3,0,0,1,1.231-1.759,3.416,3.416,0,0,1,1.86-.779,3.333,3.333,0,0,1,1.813.385,4.744,4.744,0,0,1,1.543,1.319c.173.222.318.42.431.594a6.766,6.766,0,0,1,.341.594Z" transform="translate(16.221 18.064)" fill="#dd4f6b"/>
      <path id="Tracé_94" data-name="Tracé 94" d="M74.231,72.663a.83.83,0,0,1,.742-.389,1.788,1.788,0,0,1,.869.427l6.165,4.935a4.308,4.308,0,0,1-.481.718,4.745,4.745,0,0,1-.612.647l-7.072-5.662-.021-.166Zm9.57-.322a6.888,6.888,0,0,0,.742.52,2.269,2.269,0,0,0,.713.289,1.7,1.7,0,0,1-.092.559,1.744,1.744,0,0,1-.294.545.838.838,0,0,1-.68.383,1.479,1.479,0,0,1-.805-.375l-3.729-2.986a3.085,3.085,0,0,0-1.231-.686.946.946,0,0,0-.907.446,2.626,2.626,0,0,0-.457.933,3.8,3.8,0,0,0-.133,1.191,3.5,3.5,0,0,0,.268,1.2l-1.369-1.095a5.238,5.238,0,0,1-.02-1.917,3.757,3.757,0,0,1,.773-1.754,2.169,2.169,0,0,1,1.164-.814,2.3,2.3,0,0,1,1.319.081,4.5,4.5,0,0,1,1.336.759Z" transform="translate(17.607 16.39)" fill="#dd4f6b"/>
      <path id="Tracé_95" data-name="Tracé 95" d="M78.281,64.524a1.586,1.586,0,0,1-.7-.573.862.862,0,0,1,.094-.794l.3-.583.162-.05,8.605,4.388a.92.92,0,0,0,.588.114.66.66,0,0,0,.447-.4l.575-1.127a2.765,2.765,0,0,1,.879.287c.059.031.12.062.178.1a.813.813,0,0,1,.151.113c-.1.281-.207.575-.338.881s-.27.617-.432.931a1.884,1.884,0,0,1-1.032,1.008,1.821,1.821,0,0,1-1.443-.2Zm3.262-2.757a2.925,2.925,0,0,1,.628.23,2.735,2.735,0,0,1,.562.377L81.39,64.929l-1.038,2.119a3.123,3.123,0,0,1-.633-.243,3.16,3.16,0,0,1-.557-.365l1.113-2.088Z" transform="translate(18.489 14.732)" fill="#dd4f6b"/>
      <path id="Tracé_96" data-name="Tracé 96" d="M86.474,55.475a4.646,4.646,0,0,1-.607-.168,2.068,2.068,0,0,1-.573-.272,2.129,2.129,0,0,1-.115-.648,3.323,3.323,0,0,1,.042-.765,3.426,3.426,0,0,1,.23-.727,2.02,2.02,0,0,1,.337-.576,1.979,1.979,0,0,1,.632-.05,4.779,4.779,0,0,1,.627.059,5.017,5.017,0,0,1,.616.167,1.944,1.944,0,0,1,.573.268,1.74,1.74,0,0,1,.119.653,3.75,3.75,0,0,1-.047.768,3.477,3.477,0,0,1-.227.732,2.041,2.041,0,0,1-.339.565,2.044,2.044,0,0,1-.633.053,4.578,4.578,0,0,1-.634-.058" transform="translate(20.314 12.466)" fill="#dd4f6b"/>
    </g>
  </g>
</svg>
