<?xml version="1.0" encoding="UTF-8"?>
<svg xmlns="http://www.w3.org/2000/svg" version="1.1" viewBox="0 0 283.3 284.5">
  <defs>
    <style>
      .cls-1 {
        fill: #e7677e;
      }

      .cls-2 {
        fill: #f7e6df;
      }
    </style>
  </defs>
  <!-- Generator: Adobe Illustrator 28.7.1, SVG Export Plug-In . SVG Version: 1.2.0 Build 142)  -->
  <g>
    <g id="Calque_1">
      <path class="cls-1" d="M115.8,106.7c-4.3,8.5-6,17.8-7.1,25.1-1.2,8.3-1.9,16.7-2.1,25.1,0,3.7,0,7.7,1.5,11.2.8,2,2,3.3,3.5,3.9,1.1.4,2.4.3,3.5-.3.9-.5,1.5-1.3,1.7-2.3.2-1.3-.4-2.4-.8-3.4l-.2-.4c-1.6-3.1-1.4-7-1.2-10.4.4-8.2.9-16.6,2.2-24.9,1.7-11.4,4.7-19.7,9.5-26,6.9-9.1,18.3-14.5,29.7-14.1,4.7.2,8.1,1.4,10.3,3.7,3.4,3.6,3,9.3,2.5,12.3-1.2,6.7-4.7,13.6-10.7,21-1.7,2.1-3.8,4.5-6.5,5.6-1.7.7-3.5.8-5.4,1-.6,0-1.3.1-1.9.2-7.6.9-14.9,4.7-20.2,10.3-1,1.1-2.3,2.8-2,4.8.5,2.9,3.8,4,6.8,3.6,5.7-.7,10.6-3.9,15.2-7,4.2-2.8,8.1-5.4,12.7-6.4,3.9-.9,8.3-.4,12.8,1.2,5.1,1.9,8.8,5,10.5,8.8,3.2,7-.8,15-2.6,18.1-5.8,9.6-15.2,16.4-22.8,21.2-12.6,8-23.4,12.6-34.2,14.6-6.6,1.2-11.6,1-15.8-.7-5.2-2.1-8.7-6.9-8.5-11.5,0-.4.2-1.2.4-2,.8-3.3,1.2-5.6,0-6.8-.6-.6-1.3-.8-2-.6-1.3.3-2.4,1.7-3.5,4.7-1.9,4.9-1.5,10.3,1.2,14.4,3.3,5,8.9,7.1,13.1,8.1,2.9.7,5.9.9,8.9.9,7.6,0,14.7-1.9,20-3.7,16.6-5.8,32.1-16.2,43.7-29.1,9.1-10.1,15.1-24.5,4.6-34.4-5.1-4.8-12.8-8.4-20.5-9.4-.1,0-.2,0-.3,0,7.2-8.6,14.5-17.5,14.8-29.8.2-5.6-1.9-10.1-6.2-13.3-8-6-21.9-6-31.1-3.1-1.5.5-3.1,1.1-4.6,1.8-8.1,3.8-14.5,10.1-18.6,18.2h0ZM141,140.6c-2.4,1.7-4.8,3.2-7.5,4.4.4-.4.9-.8,1.5-1.2,1.9-1.4,4-2.5,6-3.1Z"/>
      <g>
        <path class="cls-1" d="M0,118.3c0-.5.1-1.1.2-1.8.1-.7.2-1.3.3-1.8.1-.5.2-1.1.4-1.8.2-.7.4-1.3.5-1.7l34.9-4.2c.2.5.2,1.1.2,1.8s0,1.3-.2,2c-.2,1-.6,1.7-1.1,2.2s-1.5.8-2.9.9l-16,1.6c-1.5.1-3.1.3-4.9.4s-3.4.2-4.9.3v.3c1.1.5,2.4,1.1,3.8,1.8,1.4.7,2.6,1.3,3.6,1.9l18.2,9.9c0,.4,0,.8,0,1.3s-.2.9-.2,1.4c-.1.5-.2,1-.4,1.6-.2.6-.4,1-.6,1.4h-.4c0,.1-30.6-17.3-30.6-17.3ZM25.6,123.6c0,.2-.1.5-.2.9s-.2.8-.3,1.2c0,.4-.1.7-.2.9l-.6,3.1-4.6-2.9.5-2.7c0-.2,0-.5.2-.8,0-.4.1-.7.2-1.1,0-.4.1-.6.1-.8l.9-4.3c0-.2.1-.5.2-.8,0-.4.2-.7.2-1.1,0-.4.1-.6.2-.8l.6-2.8,5.3-.6-.6,3c0,.2-.1.5-.2.9,0,.4-.1.8-.2,1.2s-.1.7-.2.9l-1.4,6.8h0Z"/>
        <path class="cls-1" d="M24.4,64.2c.8.5,1.4,1.3,1.9,2.2s.7,1.8.8,2.6c-1.3.7-2.6,1.5-3.8,2.5-1.2,1.1-2.1,2.2-2.9,3.6-.8,1.5-1.2,3.1-1.1,4.7,0,1.6.8,3.2,2,4.7,1.2,1.6,3.2,3.1,5.9,4.5,3.6,2,6.7,2.8,9.2,2.4s4.5-1.9,5.9-4.6c.8-1.5,1.4-2.9,1.8-4.3.4-1.4.6-2.5.8-3.4l5.6-.7c-.2,1-.4,2.2-.8,3.5-.4,1.3-.8,2.7-1.4,4.1s-1.2,2.8-2,4.2c-1.3,2.3-2.7,4.1-4.4,5.3-1.7,1.2-3.5,1.9-5.4,2.2-1.9.3-4,.1-6.1-.4s-4.2-1.4-6.4-2.6c-2.7-1.5-4.8-3.1-6.4-5-1.6-1.8-2.6-3.7-3.2-5.7-.6-2-.7-3.9-.5-5.8s.9-3.7,1.8-5.4c1-1.9,2.3-3.6,3.9-5.1s3.2-2.7,4.9-3.5h0ZM33.3,73.9c.8-1.4,1.7-2.3,2.6-2.5s1.9,0,3,.6l1.2.7-4.5,8.3c-.3.5-.6.9-1,1.3s-.8.5-1.2.6-1-.1-1.6-.4c-.4-.2-.8-.5-1.1-.8s-.7-.6-1-.9l3.7-6.7h0ZM40.1,79.5c-1-.6-2-1.2-3-1.8-.9-.6-1.8-1.2-2.4-1.9l4.2-3.9,11.4,6.2-2.8,5.3-7.4-4.1h0Z"/>
        <path class="cls-1" d="M34.3,47.6v-.5s4.2-4.1,4.2-4.1l3.6,3.7c.5.5.9.9,1.2,1.2.3.3.8.7,1.2,1.2l11.9,12.2c.4.4.7.7,1,1,.3.3.6.7,1,1.1l3.7,3.8-1.8,1.8c-.8.8-1.7,1.2-2.6,1.1-.9,0-1.8-.5-2.6-1.3l-20.8-21.3h0ZM49,32.8c.4.3.8.5,1.1.8s.6.6.8.8c.2.2.5.6.8,1s.6.9.8,1.4l-8,7.8c-.3.3-.7.6-1.1,1.1s-1,.9-1.5,1.4-.9.9-1.3,1.2l-3.7-3.8,12-11.7h0ZM56.9,44.9c.4.2.7.5,1.1.8s.7.6.9.8c.2.3.5.6.8,1,.3.4.5.8.8,1.1l-6.2,6c-.3.3-.7.6-1.1,1.1s-1,.9-1.5,1.4-.9.9-1.3,1.2l-3.5-3.6c.4-.4.8-.8,1.3-1.3s1-1,1.4-1.4.8-.8,1.1-1.1c0,0,6.2-6,6.2-6ZM69.7,52.5c1.3,1.3,2,2.5,2.2,3.5.2,1-.3,2.1-1.5,3.2l-9.8,9.5-3.6-3.7c.6-.7,1.2-1.3,1.8-2s1.3-1.3,2-2.1l8.8-8.6h0Z"/>
        <path class="cls-1" d="M65.2,21c.4-.3.9-.7,1.6-1.1.7-.4,1.2-.7,1.6-.9.4-.2.9-.5,1.6-.7.6-.3,1.2-.5,1.9-.7l1.8,7.2-.4.3c.7,1.1,1.4,2.3,2.1,3.7s1.5,2.7,2.3,4.1,1.4,2.7,2,3.8l5.9,11.8c-.4.3-.8.6-1.3.8s-.8.5-1.2.7c-.3.2-.8.4-1.3.6-.5.2-1,.4-1.5.5l-15.2-30.2h0ZM79.2,29.8c-1.1-.9-2.1-1.7-3.1-2.5-1-.8-1.9-1.6-2.7-2.3l-4.2-1.8,2.6-5.6,17.1,13.3c1.2.9,2.3,1.8,3.3,2.7,1.1.9,2,1.7,2.8,2.3l4.3,1.6-3,5.5-17.2-13.2h0ZM88.1,9.5l15.1,30.1c-.4.3-.9.7-1.6,1.1-.7.4-1.2.7-1.7.9-.5.2-1,.5-1.6.8s-1.2.5-1.8.7l-1.6-7,.4-.3c-.7-1.2-1.5-2.5-2.3-4-.8-1.4-1.6-2.8-2.3-4.2s-1.3-2.5-1.8-3.6l-4.4-8.8c-.6-1.2-.8-2.3-.6-3,.2-.8.9-1.4,2-2l1.8-.9h.4c0,.1,0,.1,0,.1Z"/>
        <path class="cls-1" d="M128,12.8c-.2-1.3-.6-2.5-1.1-3.7-.6-1.2-1.3-2.1-2.4-2.7-1-.6-2.4-.8-4-.6-2.4.4-4,1.7-4.8,4s-.9,5.5-.3,9.6c.6,3.8,1.7,6.6,3.4,8.4,1.7,1.8,3.7,2.5,6,2.2,1.6-.2,3-.8,4.3-1.7,1.3-.9,2.6-2,3.7-3.2.7.3,1.4.8,2.1,1.5.7.7,1.2,1.4,1.5,2.1-.8,1-1.8,2-3,3-1.2,1-2.6,1.8-4.1,2.5-1.5.7-3.1,1.2-4.9,1.5-2.4.4-4.6.2-6.4-.5s-3.4-1.8-4.6-3.3-2.3-3.2-3.1-5.2-1.3-4-1.7-6.2c-.6-4.1-.5-7.5.3-10.3.9-2.8,2.2-5,4.1-6.5,1.9-1.5,4.1-2.5,6.6-2.9s4.7-.3,6.6.4c1.9.6,3.5,1.6,4.8,2.9,1.2,1.3,2,2.9,2.2,4.6.2,1.1,0,2.1-.5,2.7-.5.7-1.3,1.1-2.5,1.3-.4,0-.9.1-1.3.1s-.8,0-1.2,0h0Z"/>
        <path class="cls-1" d="M150.2.3l.4-.3,5.8.8-.7,5.2c-.1.7-.2,1.3-.2,1.8,0,.5-.1,1-.2,1.7l-2.3,16.9c0,.5-.1,1-.2,1.4s-.1.9-.2,1.5l-.7,5.2-2.6-.3c-1.1-.2-1.9-.6-2.5-1.4-.5-.8-.7-1.7-.6-2.9L150.2.3ZM168.1,31.2c-.2,1.8-.7,3.1-1.4,3.9s-1.8,1-3.5.8l-13.6-1.8.7-5.1c.9,0,1.8.1,2.6.2.9,0,1.8.2,2.9.3l12.2,1.7h0ZM166.2,16.5c0,.4,0,.9,0,1.4,0,.5,0,.9,0,1.2,0,.4-.1.8-.3,1.2s-.3.9-.4,1.3l-8.5-1.2c-.4,0-.9-.1-1.6-.2s-1.3-.2-2-.3c-.7-.1-1.3-.2-1.8-.2l.7-5c.5,0,1.1.1,1.8.2s1.3.2,2,.2c.6,0,1.2.1,1.6.2l8.5,1.2h0ZM170.9,2.8c0,.5,0,.9,0,1.3,0,.4,0,.8-.1,1.2,0,.3-.1.8-.3,1.3s-.4,1-.6,1.4l-11-1.5c-.4,0-.9-.1-1.6-.2s-1.3-.2-2-.3c-.7,0-1.3-.2-1.8-.3l.7-5.2,16.6,2.3h0Z"/>
        <path class="cls-1" d="M202.2,13.4c1.7.9,3.3,1.8,4.9,2.6s3.1,1.7,4.6,2.5c2.1,1.2,3.7,2.5,4.8,3.9,1.1,1.4,1.7,2.9,1.8,4.5,0,1.6-.4,3.2-1.3,4.9-.6,1.1-1.4,1.9-2.4,2.6-1,.7-2.1,1-3.3,1.2-1.2.1-2.3,0-3.4-.5l.4-.7c1.2.7,2.1,1.7,2.7,3s1,2.7,1,4.2c0,1.5-.4,3-1.2,4.4-1,1.8-2.2,3-3.8,3.9s-3.2,1.1-5.2.9-4.1-1-6.4-2.3c-1.7-1-3.3-1.9-4.9-2.9-1.6-1-3.2-1.9-4.9-2.9v-.4c-.1,0,16.4-28.9,16.4-28.9h.4c0-.1,0,0,0,0ZM192.7,42c.8.4,1.6.9,2.4,1.3.8.5,1.5.9,2.2,1.2,1.1.6,2,1,2.9,1,.8,0,1.6,0,2.2-.3s1.2-.7,1.6-1.1c.4-.5.8-1,1.1-1.5.4-.7.6-1.5.8-2.4.1-.9,0-1.8-.5-2.8s-1.4-1.8-2.8-2.6l-6.6-3.7,2.3-4.1,6.1,3.5c1.2.7,2.2,1,3.1,1s1.6-.3,2.2-.8,1.1-1.1,1.4-1.7c.4-.6.6-1.3.7-2.1s0-1.5-.4-2.3-1.2-1.5-2.4-2.2c-.5-.3-1.1-.7-1.9-1.1-.8-.4-1.4-.9-2.1-1.2l-12.4,21.8h0Z"/>
        <path class="cls-1" d="M238.6,70.4c-2,1.9-4.1,3.1-6.2,3.6s-4.2.4-6.2-.3c-2-.8-3.9-2.1-5.8-4.1s-3-4-3.6-6c-.6-2.1-.5-4.1.2-6.2.7-2,2.1-4,4.1-5.9l15.9-14.6h.5s1.6,1.7,1.6,1.7c.9.9,1.2,1.8,1.2,2.7s-.6,1.8-1.7,2.7l-13.2,12.2c-1.9,1.7-2.9,3.4-3.1,5.1-.2,1.7.4,3.3,1.9,5,1.5,1.6,3.1,2.4,4.8,2.3,1.7-.1,3.4-1,5.3-2.7l16-14.7c.4.3.8.7,1.2,1s.7.8,1,1.1c.3.3.6.7,1,1.2s.7.9,1,1.4l-16,14.7h0Z"/>
        <path class="cls-1" d="M260.8,86.3c.9.1,1.9.3,3,.6,1.1.3,2.2.5,3.3.8v-.2c-.2-.4-.5-.9-.9-1.5-.4-.6-.7-1.2-1-1.9s-.7-1.3-1-1.9-.5-1.1-.7-1.5l-3.3-6.9c.3-.2.6-.4.9-.6.3-.2.6-.3.9-.5.5-.2,1-.4,1.5-.6s1-.3,1.5-.4l9.1,19c-.8.7-1.3,1.2-1.7,1.5-.4.3-.7.6-.9.7-.2.1-.4.2-.6.3-.3.2-.7.3-1.1.3-.4,0-.9,0-1.4,0l-20.7-3.3c-.9-.1-1.9-.3-3.1-.6-1.1-.2-2.2-.5-3.2-.7v.2c.5.9,1,1.9,1.6,3s1.1,2,1.4,2.8l1.8,3.8c.6,1.2,1.1,2.1,1.7,2.9.6.8,1.1,1.4,1.7,1.8-.3.3-.7.6-1.1.9-.4.3-.9.6-1.3.8-1,.5-1.9.5-2.8,0-.9-.4-1.6-1.2-2.1-2.5l-8.1-17c.7-.6,1.3-1.1,1.7-1.4s.7-.5.9-.7c.2-.1.4-.2.6-.3.4-.2.8-.3,1.2-.4.5,0,.9,0,1.4,0l20.8,3.3h0Z"/>
        <path class="cls-1" d="M271.8,121.9c.8.4,1.7.8,2.7,1.4,1,.6,2,1.1,2.9,1.7v-.2c0-.5-.2-1-.4-1.7-.2-.7-.3-1.4-.5-2.1-.1-.7-.3-1.4-.4-2.1-.1-.7-.2-1.2-.3-1.6l-1.2-7.5c.3-.2.7-.3,1-.4s.7-.2,1-.2c.5,0,1.1-.2,1.6-.2.5,0,1,0,1.6,0l3.4,20.7c-.9.4-1.6.7-2.1.9-.5.2-.9.4-1.1.4-.2,0-.5.1-.6.2-.4,0-.7,0-1.1,0-.4,0-.8-.2-1.3-.4l-19-8.9c-.8-.4-1.8-.8-2.8-1.4s-2-1.1-2.9-1.6v.2c.2,1,.4,2.2.7,3.3s.4,2.2.6,3.1l.7,4.2c.2,1.3.5,2.3.8,3.2.3.9.7,1.6,1.1,2.2-.4.2-.8.4-1.3.6s-1,.3-1.5.4c-1.1.2-2,0-2.7-.7-.7-.6-1.1-1.6-1.4-2.9l-3.1-18.6c.9-.4,1.5-.7,2-.8.5-.2.8-.3,1.1-.4.2,0,.5-.1.6-.2.4,0,.8,0,1.3,0s.9.2,1.3.4l19.1,8.9h0Z"/>
      </g>
      <g>
        <path class="cls-2" d="M36.2,204.7c1-.5,2-1.2,2.8-2.1.9-.9,1.4-1.9,1.7-3.1.3-1.2,0-2.5-.7-3.9-1.1-2.1-2.9-3.3-5.4-3.4-2.5-.1-5.6.8-9.3,2.7-3.4,1.8-5.8,3.7-7,5.9-1.3,2.1-1.4,4.3-.3,6.4.6,1.2,1.5,2.3,2.7,3.2,1.1.9,2.5,1.7,4.1,2.3,0,.6-.2,1.2-.5,1.9-.3.6-.7,1.2-1.1,1.6-1.1-.3-2.3-.9-3.4-1.6s-2.2-1.6-3.2-2.6-1.9-2.2-2.5-3.6c-1-1.9-1.4-3.7-1.2-5.4.1-1.7.7-3.3,1.6-4.9.9-1.5,2.2-2.9,3.7-4.1,1.5-1.2,3.2-2.3,5-3.3,3.4-1.7,6.4-2.7,9.1-2.8,2.7-.1,5,.4,6.8,1.5,1.9,1.1,3.3,2.6,4.3,4.6,1,2,1.5,3.9,1.5,5.7,0,1.8-.4,3.4-1.3,4.8-.8,1.4-1.9,2.4-3.2,3.1-.7.4-1.3.5-2,.4-.6-.1-1.1-.6-1.6-1.4-.2-.3-.3-.6-.4-.9,0-.3-.2-.6-.2-.9h0Z"/>
        <path class="cls-2" d="M48.7,236c-1.8,1.5-3.5,2.6-5.4,3.3s-3.6.8-5.3.4c-1.7-.4-3.3-1.4-4.7-3-1.4-1.6-2.2-3.3-2.3-5-.2-1.8.2-3.5,1.1-5.2.9-1.7,2.2-3.4,3.9-4.9,1.8-1.5,3.5-2.6,5.4-3.3s3.6-.8,5.3-.4c1.7.4,3.2,1.4,4.6,3,1.4,1.6,2.2,3.3,2.4,5,.2,1.8-.2,3.5-1.1,5.2s-2.2,3.4-3.9,4.9h0ZM39,224.9c-1.1.9-2,2-2.8,3.1s-1.2,2.2-1.3,3.2.3,2.1,1.1,3.1c.9,1,1.8,1.5,2.9,1.5s2.2-.3,3.4-.9,2.3-1.4,3.4-2.4,2-2,2.8-3.1,1.2-2.2,1.4-3.3c.1-1.1-.2-2.1-1.1-3.1-.9-1-1.9-1.5-3-1.5-1.1,0-2.2.3-3.4.9-1.2.6-2.3,1.4-3.4,2.4h0Z"/>
        <path class="cls-2" d="M65.9,236.2c.8.5,1.2,1.1,1.1,1.7,0,.7-.3,1.4-.8,2.3l-10.7,16.6c-.6-.2-1.2-.6-1.9-1-.7-.5-1.3-.9-1.8-1.4l12.3-19h.4c0-.1,1.4.8,1.4.8ZM69.9,248.8c.9-1.4,1.3-2.5,1.3-3.3s-.4-1.5-1.2-2c-.6-.4-1.4-.6-2.4-.7s-2,0-3.1.3-2,.7-2.9,1.3l2.4-3.8c1.1-.5,2.2-.8,3.3-.9,1.1-.2,2.2-.2,3.2,0s2,.5,2.8,1.1c1.1.7,1.8,1.6,2.2,2.6s.4,2.1.2,3.2-.7,2.3-1.4,3.4l-8.7,13.4c-.6-.2-1.2-.6-1.9-1-.7-.5-1.3-.9-1.8-1.4l7.9-12.2h0ZM80.2,255.4c.9-1.4,1.3-2.5,1.3-3.3,0-.8-.4-1.5-1.2-2-.6-.4-1.4-.6-2.3-.7-.9,0-2,0-3.1.3s-2.1.7-3.2,1.4l2.8-4.3c1.1-.3,2.1-.5,3.2-.6,1.1,0,2.2,0,3.2.2,1,.2,1.9.6,2.8,1.1,1.1.7,1.8,1.6,2.2,2.6s.4,2.1.2,3.2c-.2,1.1-.7,2.3-1.4,3.4l-6.1,9.4c-.4.7-.8,1.3-1.1,2-.3.6-.5,1.3-.5,1.9-.4,0-.9,0-1.4,0-.5-.1-1-.3-1.4-.6-.7-.5-1.1-1-1.1-1.6,0-.6.2-1.3.7-2.1l6.5-10.1h0Z"/>
        <path class="cls-2" d="M130.4,266c.8.1,1.6.2,2.3.2s1.4,0,1.9-.2c.2.3.3.6.3,1.1,0,.4,0,.8,0,1.2-.1.9-.5,1.5-1.2,1.8-.7.2-1.5.3-2.4.1l-10.1-1.5c-1.5-.2-2.8-.1-3.8.4-1,.5-1.8,1.1-2.4,2s-.9,1.8-1.1,2.8c-.3,1.7,0,3.1.7,4.1.7,1.1,1.8,1.7,3.3,1.9,1.2.2,2.4.1,3.5-.1,1.1-.3,2-.6,2.8-1.1l1-6.5c0-.6.2-1.5.4-2.4s.3-1.8.5-2.5l4.1.6c0,.8-.1,1.6-.3,2.6s-.2,1.7-.3,2.3l-.7,4.9c-.2,1.1-.3,2.2-.4,3.5-.1,1.2-.2,2.4-.3,3.4-.6,0-1.2,0-2.1,0-.8-.1-1.5-.3-2-.5v-1.9c-1.1.6-2.3,1-3.6,1.2s-2.6.3-3.9,0c-1.8-.3-3.3-.9-4.5-1.9-1.1-1-1.9-2.2-2.4-3.6-.4-1.4-.5-3-.3-4.6.3-1.7.9-3.1,1.8-4.3.9-1.2,2.1-2.1,3.4-2.7s2.6-.8,3.8-.6v.7c-1.2-.2-2.2-.7-3.1-1.5s-1.5-1.8-1.9-3c-.4-1.2-.5-2.4-.3-3.8.2-1.5.8-2.8,1.7-3.9.9-1.1,2.1-1.9,3.6-2.5s3.2-.6,5.2-.3c1.5.2,2.9.6,4.3,1.1,1.4.5,2.5,1,3.5,1.5,0,.6-.3,1.2-.6,1.9s-.7,1.1-1.1,1.5c-.9-.5-1.9-.9-2.9-1.3-1-.4-2.2-.7-3.4-.9-1.6-.2-2.8,0-3.8.8-1,.8-1.6,1.8-1.8,3.2-.2,1.4,0,2.7.8,3.7.8,1,2.1,1.7,4,2l8.1,1.2h0Z"/>
        <path class="cls-2" d="M157.7,252.6l.2-.4,4-.9.9,3.7c.1.6.3,1.1.4,1.5.1.4.2.9.4,1.5l4.2,18c0,.4.2.7.2,1.1,0,.3.1.7.2,1.1l.9,3.8-1.7.4c-.8.2-1.4,0-2-.3-.6-.4-1-1-1.2-1.9l-6.4-27.6h0ZM175.3,248.2c.1.3.2.6.3.9,0,.3.2.6.2.8s.1.6.1,1,0,.8,0,1.1l-10.5,2.4c-.3,0-.8.2-1.2.3-.5.1-1,.2-1.5.3s-1,.2-1.4.3l-.9-3.8,14.9-3.5h0ZM176.1,262c.1.3.3.6.4.9.1.3.2.6.3.9,0,.2.1.6.2.9s0,.7,0,1l-8.4,2c-.3,0-.8.2-1.2.3-.5.1-1,.2-1.5.3-.5.1-1,.2-1.4.3l-.9-3.7c.4-.1.9-.2,1.4-.4s1-.3,1.5-.4.9-.2,1.2-.3l8.4-2h0ZM182.4,274.8c.3,1.4.4,2.5,0,3.1-.3.7-1,1.2-2.1,1.4l-12.8,3-.9-3.7c.7-.2,1.3-.4,2-.6.7-.2,1.4-.4,2.3-.6l11.4-2.7h0Z"/>
        <path class="cls-2" d="M198.1,247.5c.2-.2.5-.4.7-.5.2-.1.5-.3.7-.4.4-.2.7-.3,1.1-.4s.7-.2,1.1-.2h.2c.3,2,.6,3.9.9,6.1s.7,4.3,1,6.4c.3,2.1.6,4.1.9,6,.3,1.9.5,3.5.7,4.8-.4.3-.8.6-1.3.9s-1,.5-1.4.8c-.8.4-1.4.5-2,.5-.6,0-1.2-.5-2-1.4l-14.4-15.3c.4-.4.7-.8,1-1.1s.7-.5,1-.6c.6-.3,1.1-.4,1.5-.3s.9.4,1.4,1l7.3,7.9c.6.6,1.1,1.2,1.7,1.9s1.1,1.3,1.6,1.9c.5.6.9,1.1,1.2,1.5.2.2.4.2.6.1l-3.5-19.5h0Z"/>
        <path class="cls-2" d="M216.9,250.9l-2-2.6,8.8-6.9-.4-.5c-.7-.9-1.4-1.6-2.2-2.1s-1.7-.8-2.5-.8c-.9,0-1.8.3-2.6,1-1.2,1-1.8,2.2-1.6,3.8.2,1.6,1,3.3,2.5,5.1l.9,1.1c.9,1.2,1.9,2.1,2.8,2.9s2,1.2,3,1.2c1,0,2.1-.3,3.2-1.2.9-.7,1.7-1.5,2.3-2.4.6-.9,1.1-1.9,1.6-2.9.5,0,1,.2,1.6.5s1,.6,1.3.9c-.4,1.3-1,2.6-1.8,3.8-.9,1.3-1.9,2.4-3.1,3.4-1.4,1.1-2.7,1.7-4.1,1.9s-2.6,0-3.9-.4c-1.2-.5-2.4-1.1-3.5-2.1-1.1-.9-2.2-2-3.1-3.3-1.4-1.8-2.4-3.6-3-5.5-.6-1.9-.6-3.6-.2-5.3s1.5-3.1,3.1-4.4c1.5-1.2,3.1-1.8,4.6-1.9,1.6-.1,3.1.2,4.5,1,1.4.8,2.7,1.9,3.9,3.3.4.6.8,1.1,1.1,1.5.3.4.6.9.9,1.5l-11.9,9.3h0Z"/>
        <path class="cls-2" d="M229.4,222.5c.6-.7,1.2-1.1,1.9-1,.6,0,1.4.4,2.2,1.1l15.4,12.3c-.3.5-.7,1.1-1.2,1.8-.5.7-1,1.2-1.5,1.6l-17.7-14.1v-.4c0,0,1-1.3,1-1.3h0ZM253.3,221.7c.6.5,1.2.9,1.9,1.3s1.2.6,1.8.7c0,.4,0,.9-.2,1.4s-.4.9-.7,1.4c-.5.7-1.1,1-1.7.9-.6,0-1.3-.3-2-.9l-9.3-7.5c-1.2-1-2.3-1.6-3.1-1.7s-1.6.2-2.3,1.1c-.5.6-.9,1.4-1.1,2.3s-.4,1.9-.3,3c0,1.1.3,2.1.7,3l-3.4-2.7c-.3-1.5-.3-3.1,0-4.8.3-1.7.9-3.1,1.9-4.4.9-1.1,1.9-1.8,2.9-2s2.2-.2,3.3.2c1.1.4,2.2,1,3.3,1.9l8.5,6.8h0Z"/>
        <path class="cls-2" d="M241.8,198c-.9-.5-1.5-.9-1.8-1.4-.3-.5-.2-1.2.2-2l.7-1.5h.4c0-.1,21.5,10.8,21.5,10.8.5.3,1,.4,1.5.3.5,0,.8-.4,1.1-1l1.4-2.8c.7,0,1.4.3,2.2.7.1,0,.3.2.5.2.1,0,.3.2.4.3-.2.7-.5,1.4-.8,2.2s-.7,1.5-1.1,2.3c-.7,1.3-1.5,2.2-2.6,2.5s-2.2.2-3.6-.5l-20.1-10.2h0ZM249.9,191.1c.6.1,1.1.3,1.6.6.5.3,1,.6,1.4.9l-3.4,6.4-2.6,5.3c-.5-.1-1.1-.3-1.6-.6-.5-.2-.9-.5-1.4-.9l2.8-5.2,3.2-6.5h0Z"/>
      </g>
      <circle class="cls-2" cx="13.8" cy="164.5" r="4.9"/>
      <circle class="cls-2" cx="267.4" cy="165.9" r="4.9"/>
    </g>
  </g>
</svg>