<?xml version="1.0" encoding="UTF-8"?>
<svg id="Calque_1" data-name="Calque 1" xmlns="http://www.w3.org/2000/svg" viewBox="0 0 841.89 408.51">
  <defs>
    <style>
      .cls-1 {
        fill: #004b2a;
      }

      .cls-2 {
        fill: #e5dd00;
      }
    </style>
  </defs>
  <g>
    <path class="cls-1" d="M13.98,192.83v-115.48c0-2.45.98-3.43,3.43-3.43h10.05c2.21,0,3.43.98,3.43,3.43l.98,25.01h1.71c8.58-22.31,26.97-31.38,46.83-31.38,25.01,0,38.98,14.22,38.98,34.32v87.53c0,2.45-.98,3.43-3.43,3.43h-13.24c-2.45,0-3.43-.98-3.43-3.43v-81.4c0-10.78-9.32-17.41-25.5-17.41-20.84,0-39.72,11.53-39.72,33.83v64.97c0,2.45-.98,3.43-3.43,3.43h-13.24c-2.45,0-3.43-.98-3.43-3.43Z"/>
    <path class="cls-1" d="M145.87,135.21c0-33.83,17.65-64.23,63.26-64.23s63.26,30.4,63.26,64.23-17.65,63.99-63.26,63.99-63.26-30.16-63.26-63.99ZM252.77,135.21c0-22.31-10.3-41.43-43.4-41.43s-43.88,18.88-43.88,41.43,10.54,41.43,43.88,41.43,43.4-19.12,43.4-41.43Z"/>
    <path class="cls-1" d="M326.56,193.07l-45.36-114.99c-.98-2.45.49-4.17,2.45-4.17h17.16c2.21,0,3.43.98,4.17,3.19l33.59,93.17h1.47l32.12-93.17c.74-2.21,1.96-3.19,4.41-3.19h15.44c2.21,0,3.68,1.23,2.7,3.93l-42.91,115.23c-.98,2.21-2.21,3.19-4.66,3.19h-16.18c-2.21,0-3.68-.98-4.41-3.19Z"/>
    <path class="cls-1" d="M404.27,160.46c0-25.99,22.31-39.23,47.56-38.98,13.49.24,28.2,4.41,37.51,12.75h1.47v-16.67c0-16.67-14.22-24.52-33.83-24.52-15.2,0-29.67,4.17-43.15,14.47-1.23.98-3.19.49-3.19-1.23v-19.12c0-1.47.25-1.96,1.47-2.94,11.52-7.85,29.17-13.24,47.81-13.24,29.17,0,51,13,51,43.4v78.46c0,2.45-.74,3.43-2.94,3.43h-9.81c-1.96,0-2.94-1.23-3.19-3.43l-1.72-14.47h-1.47c-7.85,13.24-25.01,20.84-43.15,20.84-22.8,0-44.38-11.52-44.38-38.74ZM490.57,160.71v-4.41c0-10.79-18.14-18.14-35.8-18.14-19.61,0-29.91,9.07-29.91,21.08,0,13,11.03,21.09,29.17,21.09,20.35,0,36.53-10.3,36.53-19.62Z"/>
    <path class="cls-1" d="M548.18,192.83V45.23h-18.39c-2.45,0-3.43-.98-3.43-3.19v-13.98c0-2.45.98-3.43,3.43-3.43h35.06c2.45,0,3.43.98,3.43,3.43v164.76c0,2.45-.98,3.43-3.43,3.43h-13.24c-2.45,0-3.43-.98-3.43-3.43Z"/>
    <path class="cls-1" d="M611.92,160.95v-65.7h-17.16c-2.45,0-3.43-.98-3.43-3.19v-8.82c0-1.71.49-2.45,1.96-4.41l26.97-30.4c1.47-1.96,2.7-2.21,4.66-2.21h3.68c2.45,0,3.43.98,3.43,3.19v24.52h52.71c2.45,0,3.43.98,3.43,3.43v14.71c0,2.21-.98,3.19-3.43,3.19h-52.71v61.05c0,16.18,11.77,20.59,24.03,20.59s22.06-3.93,29.42-8.09c1.23-.74,2.7-.24,2.7,1.23v18.63c0,1.23-.25,1.96-1.72,2.45-9.32,4.91-21.33,8.09-33.34,8.09-25.74,0-41.19-12.01-41.19-38.25Z"/>
    <path class="cls-1" d="M701.4,135.21c0-33.83,17.65-64.23,63.26-64.23s63.26,30.4,63.26,64.23-17.65,63.99-63.26,63.99-63.26-30.16-63.26-63.99ZM808.3,135.21c0-22.31-10.3-41.43-43.4-41.43s-43.88,18.88-43.88,41.43,10.54,41.43,43.88,41.43,43.4-19.12,43.4-41.43Z"/>
  </g>
  <g>
    <path class="cls-1" d="M14.72,337.48c0-30.39,20.26-46.57,46.57-46.57,13.86,0,26.13,4.62,34.13,11.02.89.71,1.24,1.78,1.24,2.67v14.22c0,1.6-1.95,1.78-2.84,1.07-5.69-5.33-17.6-12.62-33.06-12.62-19.73,0-31.81,11.73-31.81,30.39s10.84,29.86,32.7,29.86c16.35,0,27.02-6.22,32.88-11.02,1.07-1.07,2.49-.36,2.49.71v13.15c0,1.42-.36,2.31-1.42,3.2-6.04,4.8-18.48,10.31-34.48,10.31-27.55,0-46.39-15.64-46.39-46.39Z"/>
    <path class="cls-1" d="M109.63,337.48c0-24.53,12.8-46.57,45.86-46.57s45.86,22.04,45.86,46.57-12.8,46.39-45.86,46.39-45.86-21.86-45.86-46.39ZM187.12,337.48c0-16.17-7.46-30.04-31.46-30.04s-31.81,13.68-31.81,30.04,7.64,30.04,31.81,30.04,31.46-13.86,31.46-30.04Z"/>
    <path class="cls-1" d="M221.42,379.25v-83.72c0-1.78.71-2.49,2.49-2.49h7.29c1.6,0,2.49.71,2.49,2.49l.71,18.13h1.24c6.22-16.18,19.55-22.75,33.95-22.75,18.13,0,28.26,10.31,28.26,24.88v63.45c0,1.78-.71,2.49-2.49,2.49h-9.6c-1.78,0-2.49-.71-2.49-2.49v-59.01c0-7.82-6.75-12.62-18.48-12.62-15.11,0-28.79,8.36-28.79,24.53v47.1c0,1.78-.71,2.49-2.49,2.49h-9.6c-1.78,0-2.49-.71-2.49-2.49Z"/>
    <path class="cls-1" d="M318.82,375.69c-1.42-.89-1.6-1.25-1.6-2.49v-13.33c0-.89,1.07-1.6,2.13-.71,7.64,4.98,19.55,10.13,34.66,10.13s23.82-5.15,23.82-13.33c0-21.15-60.79-.35-60.79-37.32,0-16.35,12.26-27.73,36.61-27.73,15.29,0,26.84,4.27,35.01,9.95,1.07.71,1.42,1.42,1.42,2.13v13.33c0,1.07-.89,1.24-1.6.71-8.18-6.22-19.2-11.73-34.66-11.73-14.4,0-21.51,5.15-21.51,12.8,0,21.69,60.25.18,60.25,37.86,0,18.67-15.46,27.91-38.21,27.91-15.11,0-27.02-3.91-35.55-8.17Z"/>
    <path class="cls-1" d="M405.73,336.95c0-29.86,20.79-46.04,45.86-46.04,27.37,0,41.06,17.95,41.06,39.81v8.89c0,1.24-1.07,2.31-2.31,2.31h-68.96c1.96,18.67,14.58,26.13,32.53,26.13,15.11,0,24.53-4.98,32.7-10.84,1.07-.89,2.31-.36,2.31.89v12.26c0,1.95-.18,3.02-1.24,3.73-7.64,5.15-21.15,9.78-35.01,9.78-26.48,0-46.92-15.46-46.92-46.92ZM478.24,329.13c-.53-14.93-11.2-23.11-27.02-23.11-17.6,0-27.02,8.89-29.51,23.11h56.52Z"/>
    <path class="cls-1" d="M519.3,379.25v-71.1h-15.64c-1.78,0-2.49-.89-2.49-2.49v-10.13c0-1.78.71-2.49,2.49-2.49h27.73c1.78,0,2.49.71,2.49,2.49v83.72c0,1.78-.71,2.49-2.49,2.49h-9.78c-1.6,0-2.31-.71-2.31-2.49ZM510.94,269.05c0-6.93,5.69-11.73,12.09-11.73s12.26,4.98,12.26,11.73-5.86,11.55-12.26,11.55-12.09-4.98-12.09-11.55Z"/>
    <path class="cls-1" d="M563.91,379.25v-107h-13.33c-1.78,0-2.49-.71-2.49-2.31v-10.13c0-1.78.71-2.49,2.49-2.49h25.42c1.78,0,2.49.71,2.49,2.49v119.44c0,1.78-.71,2.49-2.49,2.49h-9.6c-1.78,0-2.49-.71-2.49-2.49Z"/>
    <path class="cls-1" d="M600.52,375.69c-1.42-.89-1.6-1.25-1.6-2.49v-13.33c0-.89,1.07-1.6,2.13-.71,7.64,4.98,19.55,10.13,34.66,10.13s23.82-5.15,23.82-13.33c0-21.15-60.79-.35-60.79-37.32,0-16.35,12.26-27.73,36.61-27.73,15.29,0,26.84,4.27,35.01,9.95,1.07.71,1.42,1.42,1.42,2.13v13.33c0,1.07-.89,1.24-1.6.71-8.17-6.22-19.2-11.73-34.66-11.73-14.4,0-21.51,5.15-21.51,12.8,0,21.69,60.25.18,60.25,37.86,0,18.67-15.46,27.91-38.22,27.91-15.11,0-27.02-3.91-35.55-8.17Z"/>
  </g>
  <g>
    <path class="cls-2" d="M819.42,269c-4.02.38-6.97,3.99-6.97,8.02v34.17c0,6.17-2.77,12.15-7.83,15.69-3.6,2.52-8.08,3.78-13.64,2.97-5.2-.75-9.95-3.38-13.67-7.1l-28.61-28.61c-2.61-2.61-6.75-3.21-9.82-1.17-4.23,2.8-4.65,8.56-1.25,11.95l29.41,29.41c3.89,3.89,6.55,8.96,7.02,14.45.32,3.72-.33,6.93-1.68,9.71-2.98,6.15-9.52,9.76-16.35,9.76h-34.81c-4.04,0-7.64,2.95-8.02,6.97-.44,4.61,3.17,8.49,7.69,8.49h82.64c13.47,0,24.38-10.92,24.38-24.38v-82.64c0-4.52-3.88-8.13-8.49-7.69Z"/>
    <circle class="cls-2" cx="737.72" cy="342.89" r="11.64"/>
    <circle class="cls-2" cx="786.09" cy="293.67" r="11.64"/>
  </g>
</svg>